<svg xmlns="http://www.w3.org/2000/svg" viewBox="0 0 30 20" id="pakistan-flag">
  <path d="M0 0h30v20H0z"></path>
  <path fill="#fff" d="M1 1h10v18H1z"></path>
  <path fill="#01411c" d="M11 1h18v18H11z"></path>
  <path fill="#fff" d="M17.708 11.924a4.04 4.04 0 0 1 0-5.712 4.005 4.005 0 0 1 2.33-1.133 4.635 4.635 0 0 0-3.428 1.352 4.66 4.66 0 0 0 6.591 6.591 4.633 4.633 0 0 0 1.352-3.429 3.999 3.999 0 0 1-1.133 2.33 4.037 4.037 0 0 1-5.712.001z"></path>
  <path fill="#fff" d="m23.97 6.296 1.03.807-1.308-.04-.469 1.235-.363-1.257-1.291-.052 1.065-.732L22.271 5l1.055.795 1.085-.731z"></path>
</svg>
